<svg width="126" height="23" viewBox="0 0 126 23" fill="none" xmlns="http://www.w3.org/2000/svg">
<path d="M10.5908 15.7148V18H3.43262V15.7148H10.5908ZM4.37988 3.78125V18H1.4502V3.78125H4.37988ZM11.6455 12.8242V12.6191C11.6455 11.8444 11.7562 11.1315 11.9775 10.4805C12.1989 9.82292 12.5212 9.25326 12.9443 8.77148C13.3675 8.28971 13.8883 7.91536 14.5068 7.64844C15.1253 7.375 15.835 7.23828 16.6357 7.23828C17.4365 7.23828 18.1494 7.375 18.7744 7.64844C19.3994 7.91536 19.9235 8.28971 20.3467 8.77148C20.7764 9.25326 21.1019 9.82292 21.3232 10.4805C21.5446 11.1315 21.6553 11.8444 21.6553 12.6191V12.8242C21.6553 13.5924 21.5446 14.3053 21.3232 14.9629C21.1019 15.6139 20.7764 16.1836 20.3467 16.6719C19.9235 17.1536 19.4027 17.528 18.7842 17.7949C18.1657 18.0618 17.4561 18.1953 16.6553 18.1953C15.8545 18.1953 15.1416 18.0618 14.5166 17.7949C13.8981 17.528 13.374 17.1536 12.9443 16.6719C12.5212 16.1836 12.1989 15.6139 11.9775 14.9629C11.7562 14.3053 11.6455 13.5924 11.6455 12.8242ZM14.458 12.6191V12.8242C14.458 13.2669 14.4971 13.6803 14.5752 14.0645C14.6533 14.4486 14.777 14.7871 14.9463 15.0801C15.1221 15.3665 15.3499 15.5911 15.6299 15.7539C15.9098 15.9167 16.2516 15.998 16.6553 15.998C17.0459 15.998 17.3812 15.9167 17.6611 15.7539C17.9411 15.5911 18.1657 15.3665 18.335 15.0801C18.5042 14.7871 18.6279 14.4486 18.7061 14.0645C18.7907 13.6803 18.833 13.2669 18.833 12.8242V12.6191C18.833 12.1895 18.7907 11.7858 18.7061 11.4082C18.6279 11.0241 18.501 10.6855 18.3252 10.3926C18.1559 10.0931 17.9313 9.85872 17.6514 9.68945C17.3714 9.52018 17.0329 9.43555 16.6357 9.43555C16.2386 9.43555 15.9001 9.52018 15.6201 9.68945C15.3467 9.85872 15.1221 10.0931 14.9463 10.3926C14.777 10.6855 14.6533 11.0241 14.5752 11.4082C14.4971 11.7858 14.458 12.1895 14.458 12.6191ZM29.0869 15.6172V10.9102C29.0869 10.5716 29.0316 10.2819 28.9209 10.041C28.8102 9.79362 28.6377 9.60156 28.4033 9.46484C28.1755 9.32812 27.8792 9.25977 27.5146 9.25977C27.2021 9.25977 26.932 9.3151 26.7041 9.42578C26.4762 9.52995 26.3005 9.68294 26.1768 9.88477C26.0531 10.0801 25.9912 10.3112 25.9912 10.5781H23.1787C23.1787 10.1289 23.2829 9.70247 23.4912 9.29883C23.6995 8.89518 24.0023 8.54036 24.3994 8.23438C24.7965 7.92188 25.2686 7.67773 25.8154 7.50195C26.3688 7.32617 26.9873 7.23828 27.6709 7.23828C28.4912 7.23828 29.2204 7.375 29.8584 7.64844C30.4964 7.92188 30.9977 8.33203 31.3623 8.87891C31.7334 9.42578 31.9189 10.1094 31.9189 10.9297V15.4512C31.9189 16.0306 31.9548 16.5059 32.0264 16.877C32.098 17.2415 32.2021 17.5605 32.3389 17.834V18H29.4971C29.3604 17.7135 29.2562 17.3555 29.1846 16.9258C29.1195 16.4896 29.0869 16.0534 29.0869 15.6172ZM29.458 11.5645L29.4775 13.1562H27.9053C27.5342 13.1562 27.2119 13.1986 26.9385 13.2832C26.665 13.3678 26.4404 13.4883 26.2646 13.6445C26.0889 13.7943 25.9587 13.9701 25.874 14.1719C25.7959 14.3737 25.7568 14.5951 25.7568 14.8359C25.7568 15.0768 25.8122 15.2949 25.9229 15.4902C26.0335 15.679 26.193 15.8288 26.4014 15.9395C26.6097 16.0436 26.8538 16.0957 27.1338 16.0957C27.557 16.0957 27.9248 16.0111 28.2373 15.8418C28.5498 15.6725 28.7907 15.4642 28.96 15.2168C29.1357 14.9694 29.2269 14.735 29.2334 14.5137L29.9756 15.7051C29.8714 15.972 29.7282 16.2487 29.5459 16.5352C29.3701 16.8216 29.1455 17.0918 28.8721 17.3457C28.5986 17.5931 28.2699 17.7982 27.8857 17.9609C27.5016 18.1172 27.0459 18.1953 26.5186 18.1953C25.848 18.1953 25.2393 18.0618 24.6924 17.7949C24.152 17.5215 23.7223 17.1471 23.4033 16.6719C23.0908 16.1901 22.9346 15.6432 22.9346 15.0312C22.9346 14.4779 23.0387 13.9863 23.2471 13.5566C23.4554 13.127 23.7614 12.7656 24.165 12.4727C24.5752 12.1732 25.0863 11.9486 25.6982 11.7988C26.3102 11.6426 27.0199 11.5645 27.8271 11.5645H29.458ZM40.3271 15.6953V3H43.1592V18H40.6104L40.3271 15.6953ZM33.6475 12.8438V12.6387C33.6475 11.8314 33.7386 11.099 33.9209 10.4414C34.1032 9.77734 34.3701 9.20768 34.7217 8.73242C35.0732 8.25716 35.5062 7.88932 36.0205 7.62891C36.5348 7.36849 37.1208 7.23828 37.7783 7.23828C38.3968 7.23828 38.9372 7.36849 39.3994 7.62891C39.8682 7.88932 40.2653 8.26042 40.5908 8.74219C40.9229 9.21745 41.1898 9.7806 41.3916 10.4316C41.5934 11.0762 41.7399 11.7826 41.8311 12.5508V13C41.7399 13.7357 41.5934 14.4193 41.3916 15.0508C41.1898 15.6823 40.9229 16.2357 40.5908 16.7109C40.2653 17.1797 39.8682 17.5443 39.3994 17.8047C38.9307 18.0651 38.3838 18.1953 37.7588 18.1953C37.1012 18.1953 36.5153 18.0618 36.001 17.7949C35.4932 17.528 35.0635 17.1536 34.7119 16.6719C34.3669 16.1901 34.1032 15.6237 33.9209 14.9727C33.7386 14.3216 33.6475 13.612 33.6475 12.8438ZM36.46 12.6387V12.8438C36.46 13.2799 36.4925 13.6868 36.5576 14.0645C36.6292 14.4421 36.7432 14.7773 36.8994 15.0703C37.0622 15.3568 37.2705 15.5814 37.5244 15.7441C37.7848 15.9004 38.1006 15.9785 38.4717 15.9785C38.9535 15.9785 39.3506 15.8711 39.6631 15.6562C39.9756 15.4349 40.2132 15.1322 40.376 14.748C40.5452 14.3639 40.6429 13.9212 40.6689 13.4199V12.1406C40.6494 11.7305 40.5908 11.3626 40.4932 11.0371C40.402 10.7051 40.2653 10.4219 40.083 10.1875C39.9072 9.95312 39.6859 9.77083 39.4189 9.64062C39.1585 9.51042 38.8493 9.44531 38.4912 9.44531C38.1266 9.44531 37.8141 9.52995 37.5537 9.69922C37.2933 9.86198 37.0817 10.0866 36.9189 10.373C36.7627 10.6595 36.6455 10.998 36.5674 11.3887C36.4958 11.7728 36.46 12.1895 36.46 12.6387ZM51.8506 3.78125H54.3311L57.9834 14.2207L61.6357 3.78125H64.1162L58.9795 18H56.9873L51.8506 3.78125ZM50.5127 3.78125H52.9834L53.4326 13.957V18H50.5127V3.78125ZM62.9834 3.78125H65.4639V18H62.5342V13.957L62.9834 3.78125ZM67.4072 12.8242V12.6191C67.4072 11.8444 67.5179 11.1315 67.7393 10.4805C67.9606 9.82292 68.2829 9.25326 68.7061 8.77148C69.1292 8.28971 69.6501 7.91536 70.2686 7.64844C70.887 7.375 71.5967 7.23828 72.3975 7.23828C73.1982 7.23828 73.9111 7.375 74.5361 7.64844C75.1611 7.91536 75.6852 8.28971 76.1084 8.77148C76.5381 9.25326 76.8636 9.82292 77.085 10.4805C77.3063 11.1315 77.417 11.8444 77.417 12.6191V12.8242C77.417 13.5924 77.3063 14.3053 77.085 14.9629C76.8636 15.6139 76.5381 16.1836 76.1084 16.6719C75.6852 17.1536 75.1644 17.528 74.5459 17.7949C73.9274 18.0618 73.2178 18.1953 72.417 18.1953C71.6162 18.1953 70.9033 18.0618 70.2783 17.7949C69.6598 17.528 69.1357 17.1536 68.7061 16.6719C68.2829 16.1836 67.9606 15.6139 67.7393 14.9629C67.5179 14.3053 67.4072 13.5924 67.4072 12.8242ZM70.2197 12.6191V12.8242C70.2197 13.2669 70.2588 13.6803 70.3369 14.0645C70.415 14.4486 70.5387 14.7871 70.708 15.0801C70.8838 15.3665 71.1117 15.5911 71.3916 15.7539C71.6715 15.9167 72.0133 15.998 72.417 15.998C72.8076 15.998 73.1429 15.9167 73.4229 15.7539C73.7028 15.5911 73.9274 15.3665 74.0967 15.0801C74.266 14.7871 74.3896 14.4486 74.4678 14.0645C74.5524 13.6803 74.5947 13.2669 74.5947 12.8242V12.6191C74.5947 12.1895 74.5524 11.7858 74.4678 11.4082C74.3896 11.0241 74.2627 10.6855 74.0869 10.3926C73.9176 10.0931 73.693 9.85872 73.4131 9.68945C73.1331 9.52018 72.7946 9.43555 72.3975 9.43555C72.0003 9.43555 71.6618 9.52018 71.3818 9.68945C71.1084 9.85872 70.8838 10.0931 70.708 10.3926C70.5387 10.6855 70.415 11.0241 70.3369 11.4082C70.2588 11.7858 70.2197 12.1895 70.2197 12.6191ZM81.958 9.73828V18H79.1455V7.43359H81.792L81.958 9.73828ZM85.1416 7.36523L85.0928 9.97266C84.9561 9.95312 84.79 9.93685 84.5947 9.92383C84.4059 9.9043 84.2334 9.89453 84.0771 9.89453C83.68 9.89453 83.335 9.94661 83.042 10.0508C82.7555 10.1484 82.5146 10.2949 82.3193 10.4902C82.1305 10.6855 81.9873 10.9232 81.8896 11.2031C81.7985 11.4831 81.7464 11.8021 81.7334 12.1602L81.167 11.9844C81.167 11.3008 81.2354 10.6725 81.3721 10.0996C81.5088 9.52018 81.7074 9.01562 81.9678 8.58594C82.2347 8.15625 82.5602 7.82422 82.9443 7.58984C83.3285 7.35547 83.7679 7.23828 84.2627 7.23828C84.4189 7.23828 84.5785 7.2513 84.7412 7.27734C84.904 7.29688 85.0374 7.32617 85.1416 7.36523ZM91.1377 18.1953C90.3174 18.1953 89.5817 18.0651 88.9307 17.8047C88.2796 17.5378 87.7262 17.1699 87.2705 16.7012C86.8213 16.2324 86.4762 15.6888 86.2354 15.0703C85.9945 14.4453 85.874 13.7812 85.874 13.0781V12.6875C85.874 11.8867 85.988 11.1543 86.2158 10.4902C86.4437 9.82617 86.7692 9.25 87.1924 8.76172C87.6221 8.27344 88.1429 7.89909 88.7549 7.63867C89.3669 7.37174 90.057 7.23828 90.8252 7.23828C91.5739 7.23828 92.238 7.36198 92.8174 7.60938C93.3968 7.85677 93.8818 8.20833 94.2725 8.66406C94.6696 9.11979 94.9691 9.66667 95.1709 10.3047C95.3727 10.9362 95.4736 11.6393 95.4736 12.4141V13.5859H87.0752V11.7109H92.71V11.4961C92.71 11.1055 92.6383 10.7572 92.4951 10.4512C92.3584 10.1387 92.1501 9.89128 91.8701 9.70898C91.5902 9.52669 91.2321 9.43555 90.7959 9.43555C90.4248 9.43555 90.1058 9.51693 89.8389 9.67969C89.5719 9.84245 89.3538 10.0703 89.1846 10.3633C89.0218 10.6562 88.8981 11.0013 88.8135 11.3984C88.7354 11.7891 88.6963 12.2188 88.6963 12.6875V13.0781C88.6963 13.5013 88.7549 13.8919 88.8721 14.25C88.9958 14.6081 89.1683 14.9173 89.3896 15.1777C89.6175 15.4382 89.891 15.64 90.21 15.7832C90.5355 15.9264 90.9033 15.998 91.3135 15.998C91.8213 15.998 92.2933 15.9004 92.7295 15.7051C93.1722 15.5033 93.5531 15.2005 93.8721 14.7969L95.2393 16.2812C95.0179 16.6003 94.7152 16.9062 94.3311 17.1992C93.9535 17.4922 93.4977 17.7331 92.9639 17.9219C92.43 18.1042 91.8213 18.1953 91.1377 18.1953Z" fill="white"/>
<circle cx="115.681" cy="11.5" r="9.5" fill="#335B6B"/>
<path d="M115.657 8.12891L119.052 11.1934L115.657 14.2579M118.58 11.1934H111.697" stroke="white" stroke-linecap="round" stroke-linejoin="round"/>
</svg>
