<svg width="122" height="23" viewBox="0 0 122 23" fill="none" xmlns="http://www.w3.org/2000/svg">
<path d="M9.17188 14.2793C9.17188 14.0254 9.13281 13.7975 9.05469 13.5957C8.98307 13.3874 8.84635 13.1986 8.64453 13.0293C8.44271 12.8535 8.15951 12.681 7.79492 12.5117C7.43034 12.3424 6.95833 12.1667 6.37891 11.9844C5.73438 11.776 5.1224 11.5417 4.54297 11.2812C3.97005 11.0208 3.46224 10.7181 3.01953 10.373C2.58333 10.0215 2.23828 9.61458 1.98438 9.15234C1.73698 8.6901 1.61328 8.15299 1.61328 7.54102C1.61328 6.94857 1.74349 6.41146 2.00391 5.92969C2.26432 5.44141 2.62891 5.02474 3.09766 4.67969C3.56641 4.32812 4.11979 4.05794 4.75781 3.86914C5.40234 3.68034 6.10872 3.58594 6.87695 3.58594C7.92513 3.58594 8.83984 3.77474 9.62109 4.15234C10.4023 4.52995 11.0078 5.04753 11.4375 5.70508C11.8737 6.36263 12.0918 7.11458 12.0918 7.96094H9.18164C9.18164 7.54427 9.09375 7.17969 8.91797 6.86719C8.7487 6.54818 8.48828 6.29753 8.13672 6.11523C7.79167 5.93294 7.35547 5.8418 6.82812 5.8418C6.32031 5.8418 5.89714 5.91992 5.55859 6.07617C5.22005 6.22591 4.96615 6.43099 4.79688 6.69141C4.6276 6.94531 4.54297 7.23177 4.54297 7.55078C4.54297 7.79167 4.60156 8.00977 4.71875 8.20508C4.84245 8.40039 5.02474 8.58268 5.26562 8.75195C5.50651 8.92122 5.80273 9.08073 6.1543 9.23047C6.50586 9.38021 6.91276 9.52669 7.375 9.66992C8.14974 9.9043 8.83008 10.168 9.41602 10.4609C10.0085 10.7539 10.5033 11.0827 10.9004 11.4473C11.2975 11.8118 11.597 12.2253 11.7988 12.6875C12.0007 13.1497 12.1016 13.6738 12.1016 14.2598C12.1016 14.8783 11.9811 15.4316 11.7402 15.9199C11.4993 16.4082 11.151 16.8216 10.6953 17.1602C10.2396 17.4987 9.69596 17.7559 9.06445 17.9316C8.43294 18.1074 7.72656 18.1953 6.94531 18.1953C6.24219 18.1953 5.54883 18.1042 4.86523 17.9219C4.18164 17.7331 3.5599 17.4499 3 17.0723C2.44661 16.6947 2.00391 16.2129 1.67188 15.627C1.33984 15.041 1.17383 14.3477 1.17383 13.5469H4.11328C4.11328 13.9896 4.18164 14.3639 4.31836 14.6699C4.45508 14.9759 4.64714 15.2233 4.89453 15.4121C5.14844 15.6009 5.44792 15.7376 5.79297 15.8223C6.14453 15.9069 6.52865 15.9492 6.94531 15.9492C7.45312 15.9492 7.86979 15.8776 8.19531 15.7344C8.52734 15.5911 8.77148 15.3926 8.92773 15.1387C9.09049 14.8848 9.17188 14.5983 9.17188 14.2793ZM16.6621 3V18H13.8496V3H16.6621ZM16.2617 12.3457H15.4902C15.4967 11.61 15.5944 10.9329 15.7832 10.3145C15.972 9.68945 16.2422 9.14909 16.5938 8.69336C16.9453 8.23112 17.3652 7.87305 17.8535 7.61914C18.3483 7.36523 18.8952 7.23828 19.4941 7.23828C20.015 7.23828 20.487 7.31315 20.9102 7.46289C21.3398 7.60612 21.7077 7.84049 22.0137 8.16602C22.3262 8.48503 22.5671 8.90495 22.7363 9.42578C22.9056 9.94661 22.9902 10.5781 22.9902 11.3203V18H20.1582V11.3008C20.1582 10.832 20.0898 10.4642 19.9531 10.1973C19.8229 9.92383 19.6309 9.73177 19.377 9.62109C19.1296 9.50391 18.8236 9.44531 18.459 9.44531C18.0553 9.44531 17.7103 9.52018 17.4238 9.66992C17.1439 9.81966 16.9193 10.028 16.75 10.2949C16.5807 10.5553 16.457 10.8613 16.3789 11.2129C16.3008 11.5645 16.2617 11.9421 16.2617 12.3457ZM24.6797 12.8242V12.6191C24.6797 11.8444 24.7904 11.1315 25.0117 10.4805C25.2331 9.82292 25.5553 9.25326 25.9785 8.77148C26.4017 8.28971 26.9225 7.91536 27.541 7.64844C28.1595 7.375 28.8691 7.23828 29.6699 7.23828C30.4707 7.23828 31.1836 7.375 31.8086 7.64844C32.4336 7.91536 32.9577 8.28971 33.3809 8.77148C33.8105 9.25326 34.1361 9.82292 34.3574 10.4805C34.5788 11.1315 34.6895 11.8444 34.6895 12.6191V12.8242C34.6895 13.5924 34.5788 14.3053 34.3574 14.9629C34.1361 15.6139 33.8105 16.1836 33.3809 16.6719C32.9577 17.1536 32.4368 17.528 31.8184 17.7949C31.1999 18.0618 30.4902 18.1953 29.6895 18.1953C28.8887 18.1953 28.1758 18.0618 27.5508 17.7949C26.9323 17.528 26.4082 17.1536 25.9785 16.6719C25.5553 16.1836 25.2331 15.6139 25.0117 14.9629C24.7904 14.3053 24.6797 13.5924 24.6797 12.8242ZM27.4922 12.6191V12.8242C27.4922 13.2669 27.5312 13.6803 27.6094 14.0645C27.6875 14.4486 27.8112 14.7871 27.9805 15.0801C28.1562 15.3665 28.3841 15.5911 28.6641 15.7539C28.944 15.9167 29.2858 15.998 29.6895 15.998C30.0801 15.998 30.4154 15.9167 30.6953 15.7539C30.9753 15.5911 31.1999 15.3665 31.3691 15.0801C31.5384 14.7871 31.6621 14.4486 31.7402 14.0645C31.8249 13.6803 31.8672 13.2669 31.8672 12.8242V12.6191C31.8672 12.1895 31.8249 11.7858 31.7402 11.4082C31.6621 11.0241 31.5352 10.6855 31.3594 10.3926C31.1901 10.0931 30.9655 9.85872 30.6855 9.68945C30.4056 9.52018 30.0671 9.43555 29.6699 9.43555C29.2728 9.43555 28.9342 9.52018 28.6543 9.68945C28.3809 9.85872 28.1562 10.0931 27.9805 10.3926C27.8112 10.6855 27.6875 11.0241 27.6094 11.4082C27.5312 11.7858 27.4922 12.1895 27.4922 12.6191ZM39.2305 9.46484V22.0625H36.418V7.43359H39.0254L39.2305 9.46484ZM45.9199 12.5996V12.8047C45.9199 13.5729 45.8288 14.2858 45.6465 14.9434C45.4707 15.6009 45.2103 16.1738 44.8652 16.6621C44.5202 17.1439 44.0905 17.5215 43.5762 17.7949C43.0684 18.0618 42.4824 18.1953 41.8184 18.1953C41.1738 18.1953 40.6139 18.0651 40.1387 17.8047C39.6634 17.5443 39.263 17.1797 38.9375 16.7109C38.6185 16.2357 38.3613 15.6855 38.166 15.0605C37.9707 14.4355 37.821 13.765 37.7168 13.0488V12.5117C37.821 11.7435 37.9707 11.0404 38.166 10.4023C38.3613 9.75781 38.6185 9.20117 38.9375 8.73242C39.263 8.25716 39.6602 7.88932 40.1289 7.62891C40.6042 7.36849 41.1608 7.23828 41.7988 7.23828C42.4694 7.23828 43.0586 7.36523 43.5664 7.61914C44.0807 7.87305 44.5104 8.23763 44.8555 8.71289C45.207 9.18815 45.4707 9.75456 45.6465 10.4121C45.8288 11.0697 45.9199 11.7988 45.9199 12.5996ZM43.0977 12.8047V12.5996C43.0977 12.1504 43.0586 11.737 42.9805 11.3594C42.9089 10.9753 42.7917 10.64 42.6289 10.3535C42.4727 10.0671 42.2643 9.8457 42.0039 9.68945C41.75 9.52669 41.4408 9.44531 41.0762 9.44531C40.6921 9.44531 40.3633 9.50716 40.0898 9.63086C39.8229 9.75456 39.6048 9.93359 39.4355 10.168C39.2663 10.4023 39.1393 10.6823 39.0547 11.0078C38.9701 11.3333 38.918 11.7012 38.8984 12.1113V13.4688C38.931 13.9505 39.0221 14.3835 39.1719 14.7676C39.3216 15.1452 39.5527 15.4447 39.8652 15.666C40.1777 15.8874 40.5879 15.998 41.0957 15.998C41.4668 15.998 41.7793 15.9167 42.0332 15.7539C42.2871 15.5846 42.4922 15.3535 42.6484 15.0605C42.8112 14.7676 42.9251 14.429 42.9902 14.0449C43.0618 13.6608 43.0977 13.2474 43.0977 12.8047ZM64.3965 3.78125V18H61.4668L55.7539 8.46875V18H52.8242V3.78125H55.7539L61.4766 13.3223V3.78125H64.3965ZM66.3203 12.8242V12.6191C66.3203 11.8444 66.431 11.1315 66.6523 10.4805C66.8737 9.82292 67.196 9.25326 67.6191 8.77148C68.0423 8.28971 68.5632 7.91536 69.1816 7.64844C69.8001 7.375 70.5098 7.23828 71.3105 7.23828C72.1113 7.23828 72.8242 7.375 73.4492 7.64844C74.0742 7.91536 74.5983 8.28971 75.0215 8.77148C75.4512 9.25326 75.7767 9.82292 75.998 10.4805C76.2194 11.1315 76.3301 11.8444 76.3301 12.6191V12.8242C76.3301 13.5924 76.2194 14.3053 75.998 14.9629C75.7767 15.6139 75.4512 16.1836 75.0215 16.6719C74.5983 17.1536 74.0775 17.528 73.459 17.7949C72.8405 18.0618 72.1309 18.1953 71.3301 18.1953C70.5293 18.1953 69.8164 18.0618 69.1914 17.7949C68.5729 17.528 68.0488 17.1536 67.6191 16.6719C67.196 16.1836 66.8737 15.6139 66.6523 14.9629C66.431 14.3053 66.3203 13.5924 66.3203 12.8242ZM69.1328 12.6191V12.8242C69.1328 13.2669 69.1719 13.6803 69.25 14.0645C69.3281 14.4486 69.4518 14.7871 69.6211 15.0801C69.7969 15.3665 70.0247 15.5911 70.3047 15.7539C70.5846 15.9167 70.9264 15.998 71.3301 15.998C71.7207 15.998 72.056 15.9167 72.3359 15.7539C72.6159 15.5911 72.8405 15.3665 73.0098 15.0801C73.179 14.7871 73.3027 14.4486 73.3809 14.0645C73.4655 13.6803 73.5078 13.2669 73.5078 12.8242V12.6191C73.5078 12.1895 73.4655 11.7858 73.3809 11.4082C73.3027 11.0241 73.1758 10.6855 73 10.3926C72.8307 10.0931 72.6061 9.85872 72.3262 9.68945C72.0462 9.52018 71.7077 9.43555 71.3105 9.43555C70.9134 9.43555 70.5749 9.52018 70.2949 9.68945C70.0215 9.85872 69.7969 10.0931 69.6211 10.3926C69.4518 10.6855 69.3281 11.0241 69.25 11.4082C69.1719 11.7858 69.1328 12.1895 69.1328 12.6191ZM81.0762 15.2656L83.2734 7.43359H85.0605L84.4844 10.5098L82.2871 18H80.793L81.0762 15.2656ZM79.9629 7.43359L81.5352 15.2559L81.6816 18H79.9238L77.248 7.43359H79.9629ZM87.0723 15.1289L88.6055 7.43359H91.3301L88.6543 18H86.9062L87.0723 15.1289ZM85.3047 7.43359L87.4922 15.207L87.7949 18H86.291L84.0938 10.5195L83.5371 7.43359H85.3047Z" fill="white"/>
<circle cx="112" cy="11.5" r="9.5" fill="#335B6B"/>
<path d="M111.976 8.12891L115.371 11.1934L111.976 14.2579M114.899 11.1934H108.016" stroke="white" stroke-linecap="round" stroke-linejoin="round"/>
</svg>
